{
    "asset" : {
        "generator" : "Khronos glTF Blender I/O v1.8.19",
        "version" : "2.0"
    },
    "scene" : 0,
    "scenes" : [
        {
            "name" : "Scene",
            "nodes" : [
                0
            ]
        }
    ],
    "nodes" : [
        {
            "mesh" : 0,
            "name" : "11525190_GB_CM5310_OBSW 29531020_GB_11525190_CM5310_OBS_df4e012",
            "scale" : [
                1.6850014925003052,
                1.6850014925003052,
                1.6850014925003052
            ]
        }
    ],
    "materials" : [
        {
            "doubleSided" : true,
            "name" : "Material.001",
            "pbrMetallicRoughness" : {
                "baseColorFactor" : [
                    0.00025768301566131413,
                    0.00025768301566131413,
                    0.00025768301566131413,
                    1
                ],
                "metallicFactor" : 0,
                "roughnessFactor" : 0.0642457976937294
            }
        },
        {
            "doubleSided" : true,
            "name" : "Material.002",
            "pbrMetallicRoughness" : {
                "baseColorFactor" : [
                    0.40644288063049316,
                    0.40644288063049316,
                    0.40644288063049316,
                    1
                ],
                "roughnessFactor" : 0.5
            }
        },
        {
            "doubleSided" : true,
            "name" : "Material.003",
            "pbrMetallicRoughness" : {
                "baseColorFactor" : [
                    0,
                    0,
                    0,
                    1
                ],
                "metallicFactor" : 0,
                "roughnessFactor" : 0.340782105922699
            }
        },
        {
            "doubleSided" : true,
            "name" : "Material.004",
            "pbrMetallicRoughness" : {
                "metallicFactor" : 0
            }
        },
        {
            "doubleSided" : true,
            "name" : "Material.005",
            "pbrMetallicRoughness" : {
                "baseColorTexture" : {
                    "index" : 0
                },
                "metallicFactor" : 0.3687150478363037,
                "roughnessFactor" : 0.044692736119031906
            }
        }
    ],
    "meshes" : [
        {
            "name" : "11525190_GB_CM5310_OBSW 29531020_GB_11525190_CM5310_OBS_f5eded3",
            "primitives" : [
                {
                    "attributes" : {
                        "POSITION" : 0,
                        "NORMAL" : 1,
                        "TEXCOORD_0" : 2
                    },
                    "indices" : 3,
                    "material" : 0
                },
                {
                    "attributes" : {
                        "POSITION" : 4,
                        "NORMAL" : 5,
                        "TEXCOORD_0" : 6
                    },
                    "indices" : 7,
                    "material" : 1
                },
                {
                    "attributes" : {
                        "POSITION" : 8,
                        "NORMAL" : 9,
                        "TEXCOORD_0" : 10
                    },
                    "indices" : 11,
                    "material" : 2
                },
                {
                    "attributes" : {
                        "POSITION" : 12,
                        "NORMAL" : 13,
                        "TEXCOORD_0" : 14
                    },
                    "indices" : 15,
                    "material" : 3
                },
                {
                    "attributes" : {
                        "POSITION" : 16,
                        "NORMAL" : 17,
                        "TEXCOORD_0" : 18
                    },
                    "indices" : 19,
                    "material" : 4
                }
            ]
        }
    ],
    "textures" : [
        {
            "sampler" : 0,
            "source" : 0
        }
    ],
    "images" : [
        {
            "bufferView" : 20,
            "mimeType" : "image/png",
            "name" : "11525190_GB_CM5310_OBSW"
        }
    ],
    "accessors" : [
        {
            "bufferView" : 0,
            "componentType" : 5126,
            "count" : 5491,
            "max" : [
                0.3953412175178528,
                1.1827428340911865,
                1.5091863870620728
            ],
            "min" : [
                -0.3953412175178528,
                0,
                -0.08530183881521225
            ],
            "type" : "VEC3"
        },
        {
            "bufferView" : 1,
            "componentType" : 5126,
            "count" : 5491,
            "type" : "VEC3"
        },
        {
            "bufferView" : 2,
            "componentType" : 5126,
            "count" : 5491,
            "type" : "VEC2"
        },
        {
            "bufferView" : 3,
            "componentType" : 5123,
            "count" : 13740,
            "type" : "SCALAR"
        },
        {
            "bufferView" : 4,
            "componentType" : 5126,
            "count" : 2815,
            "max" : [
                0.35265064239501953,
                0.9678477644920349,
                1.4681837558746338
            ],
            "min" : [
                -0.35277384519577026,
                0.1683465838432312,
                1.1725242137908936
            ],
            "type" : "VEC3"
        },
        {
            "bufferView" : 5,
            "componentType" : 5126,
            "count" : 2815,
            "type" : "VEC3"
        },
        {
            "bufferView" : 6,
            "componentType" : 5126,
            "count" : 2815,
            "type" : "VEC2"
        },
        {
            "bufferView" : 7,
            "componentType" : 5123,
            "count" : 7152,
            "type" : "SCALAR"
        },
        {
            "bufferView" : 8,
            "componentType" : 5126,
            "count" : 30,
            "max" : [
                0.33624643087387085,
                0.9678477644920349,
                1.4681837558746338
            ],
            "min" : [
                -0.3363696336746216,
                0.1683465838432312,
                1.2122132778167725
            ],
            "type" : "VEC3"
        },
        {
            "bufferView" : 9,
            "componentType" : 5126,
            "count" : 30,
            "type" : "VEC3"
        },
        {
            "bufferView" : 10,
            "componentType" : 5126,
            "count" : 30,
            "type" : "VEC2"
        },
        {
            "bufferView" : 11,
            "componentType" : 5123,
            "count" : 78,
            "type" : "SCALAR"
        },
        {
            "bufferView" : 12,
            "componentType" : 5126,
            "count" : 158,
            "max" : [
                0.07935820519924164,
                0.7317655086517334,
                1.3696233034133911
            ],
            "min" : [
                -0.08045806735754013,
                0.7012176513671875,
                1.3696233034133911
            ],
            "type" : "VEC3"
        },
        {
            "bufferView" : 13,
            "componentType" : 5126,
            "count" : 158,
            "type" : "VEC3"
        },
        {
            "bufferView" : 14,
            "componentType" : 5126,
            "count" : 158,
            "type" : "VEC2"
        },
        {
            "bufferView" : 15,
            "componentType" : 5123,
            "count" : 450,
            "type" : "SCALAR"
        },
        {
            "bufferView" : 16,
            "componentType" : 5126,
            "count" : 96,
            "max" : [
                0.3953412175178528,
                1.1827428340911865,
                1.1630576848983765
            ],
            "min" : [
                -0.3953412175178528,
                0.877525806427002,
                1.1597769260406494
            ],
            "type" : "VEC3"
        },
        {
            "bufferView" : 17,
            "componentType" : 5126,
            "count" : 96,
            "type" : "VEC3"
        },
        {
            "bufferView" : 18,
            "componentType" : 5126,
            "count" : 96,
            "type" : "VEC2"
        },
        {
            "bufferView" : 19,
            "componentType" : 5123,
            "count" : 264,
            "type" : "SCALAR"
        }
    ],
    "bufferViews" : [
        {
            "buffer" : 0,
            "byteLength" : 65892,
            "byteOffset" : 0
        },
        {
            "buffer" : 0,
            "byteLength" : 65892,
            "byteOffset" : 65892
        },
        {
            "buffer" : 0,
            "byteLength" : 43928,
            "byteOffset" : 131784
        },
        {
            "buffer" : 0,
            "byteLength" : 27480,
            "byteOffset" : 175712
        },
        {
            "buffer" : 0,
            "byteLength" : 33780,
            "byteOffset" : 203192
        },
        {
            "buffer" : 0,
            "byteLength" : 33780,
            "byteOffset" : 236972
        },
        {
            "buffer" : 0,
            "byteLength" : 22520,
            "byteOffset" : 270752
        },
        {
            "buffer" : 0,
            "byteLength" : 14304,
            "byteOffset" : 293272
        },
        {
            "buffer" : 0,
            "byteLength" : 360,
            "byteOffset" : 307576
        },
        {
            "buffer" : 0,
            "byteLength" : 360,
            "byteOffset" : 307936
        },
        {
            "buffer" : 0,
            "byteLength" : 240,
            "byteOffset" : 308296
        },
        {
            "buffer" : 0,
            "byteLength" : 156,
            "byteOffset" : 308536
        },
        {
            "buffer" : 0,
            "byteLength" : 1896,
            "byteOffset" : 308692
        },
        {
            "buffer" : 0,
            "byteLength" : 1896,
            "byteOffset" : 310588
        },
        {
            "buffer" : 0,
            "byteLength" : 1264,
            "byteOffset" : 312484
        },
        {
            "buffer" : 0,
            "byteLength" : 900,
            "byteOffset" : 313748
        },
        {
            "buffer" : 0,
            "byteLength" : 1152,
            "byteOffset" : 314648
        },
        {
            "buffer" : 0,
            "byteLength" : 1152,
            "byteOffset" : 315800
        },
        {
            "buffer" : 0,
            "byteLength" : 768,
            "byteOffset" : 316952
        },
        {
            "buffer" : 0,
            "byteLength" : 528,
            "byteOffset" : 317720
        },
        {
            "buffer" : 0,
            "byteLength" : 328911,
            "byteOffset" : 318248
        }
    ],
    "samplers" : [
        {
            "magFilter" : 9729,
            "minFilter" : 9987
        }
    ],
    "buffers" : [
        {
            "byteLength" : 647160,
            "uri" : "data:application/octet-stream;base64,"
        }
    ]
}
