{
    "asset" : {
        "generator" : "Khronos glTF Blender I/O v1.8.19",
        "version" : "2.0"
    },
    "scene" : 0,
    "scenes" : [
        {
            "name" : "Scene",
            "nodes" : [
                0
            ]
        }
    ],
    "nodes" : [
        {
            "mesh" : 0,
            "name" : "11093620_GB_H7464BP_EDST-CLST 22746445_GB_11093620_H746_5cbbc8a",
            "scale" : [
                0.30480000376701355,
                0.30480000376701355,
                0.30480000376701355
            ]
        }
    ],
    "materials" : [
        {
            "doubleSided" : true,
            "name" : "Material.001",
            "pbrMetallicRoughness" : {
                "baseColorFactor" : [
                    0.800000011920929,
                    0.800000011920929,
                    0.800000011920929,
                    1
                ],
                "metallicFactor" : 0,
                "roughnessFactor" : 0.5
            }
        },
        {
            "doubleSided" : true,
            "name" : "Material.002",
            "pbrMetallicRoughness" : {
                "baseColorTexture" : {
                    "index" : 0
                },
                "metallicFactor" : 0,
                "roughnessFactor" : 0.5
            }
        }
    ],
    "meshes" : [
        {
            "name" : "11093620_GB_H7464BP_EDST-CLST 22746445_GB_11093620_H746_7f6ff93",
            "primitives" : [
                {
                    "attributes" : {
                        "POSITION" : 0,
                        "NORMAL" : 1,
                        "TEXCOORD_0" : 2
                    },
                    "indices" : 3,
                    "material" : 0
                },
                {
                    "attributes" : {
                        "POSITION" : 4,
                        "NORMAL" : 5,
                        "TEXCOORD_0" : 6
                    },
                    "indices" : 7,
                    "material" : 1
                }
            ]
        }
    ],
    "textures" : [
        {
            "sampler" : 0,
            "source" : 0
        }
    ],
    "images" : [
        {
            "bufferView" : 8,
            "mimeType" : "image/png",
            "name" : "11093620_GB_H7464BP_EDST-CLST"
        }
    ],
    "accessors" : [
        {
            "bufferView" : 0,
            "componentType" : 5126,
            "count" : 1540,
            "max" : [
                0.9760498404502869,
                1.9553805589675903,
                0.23064304888248444
            ],
            "min" : [
                -0.9760498404502869,
                0,
                -1.791338562965393
            ],
            "type" : "VEC3"
        },
        {
            "bufferView" : 1,
            "componentType" : 5126,
            "count" : 1540,
            "type" : "VEC3"
        },
        {
            "bufferView" : 2,
            "componentType" : 5126,
            "count" : 1540,
            "type" : "VEC2"
        },
        {
            "bufferView" : 3,
            "componentType" : 5123,
            "count" : 3249,
            "type" : "SCALAR"
        },
        {
            "bufferView" : 4,
            "componentType" : 5126,
            "count" : 158,
            "max" : [
                0.9760498404502869,
                1.9553805589675903,
                0.23064304888248444
            ],
            "min" : [
                -0.9760498404502869,
                0,
                -0.08202099800109863
            ],
            "type" : "VEC3"
        },
        {
            "bufferView" : 5,
            "componentType" : 5126,
            "count" : 158,
            "type" : "VEC3"
        },
        {
            "bufferView" : 6,
            "componentType" : 5126,
            "count" : 158,
            "type" : "VEC2"
        },
        {
            "bufferView" : 7,
            "componentType" : 5123,
            "count" : 315,
            "type" : "SCALAR"
        }
    ],
    "bufferViews" : [
        {
            "buffer" : 0,
            "byteLength" : 18480,
            "byteOffset" : 0
        },
        {
            "buffer" : 0,
            "byteLength" : 18480,
            "byteOffset" : 18480
        },
        {
            "buffer" : 0,
            "byteLength" : 12320,
            "byteOffset" : 36960
        },
        {
            "buffer" : 0,
            "byteLength" : 6498,
            "byteOffset" : 49280
        },
        {
            "buffer" : 0,
            "byteLength" : 1896,
            "byteOffset" : 55780
        },
        {
            "buffer" : 0,
            "byteLength" : 1896,
            "byteOffset" : 57676
        },
        {
            "buffer" : 0,
            "byteLength" : 1264,
            "byteOffset" : 59572
        },
        {
            "buffer" : 0,
            "byteLength" : 630,
            "byteOffset" : 60836
        },
        {
            "buffer" : 0,
            "byteLength" : 356233,
            "byteOffset" : 61468
        }
    ],
    "samplers" : [
        {
            "magFilter" : 9729,
            "minFilter" : 9987
        }
    ],
    "buffers" : [
        {
            "byteLength" : 417704,
            "uri" : "data:application/octet-stream;base64,"
        }
    ]
}
